<?xml version="1.0" encoding="UTF-8"?>
<svg xmlns="http://www.w3.org/2000/svg" viewBox="0 0 860 330" width="860" height="330" fill="none" role="img" aria-label="BuildArena 2.0 Construction Challenge">
  <defs>
    <filter id="ba-glow" x="-40%" y="-40%" width="180%" height="180%">
      <feGaussianBlur stdDeviation="7" result="b"/>
      <feMerge>
        <feMergeNode in="b"/>
        <feMergeNode in="b"/>
      </feMerge>
    </filter>
    <path id="ba-kicker" d="M0.0 -2.625V-21.0H15.750000000000002V-18.375H18.375V-13.125H15.750000000000002V-10.5H18.375V-5.25H15.750000000000002V-2.625ZM5.25 -13.125H13.125V-18.375H5.25ZM5.25 -5.25H13.125V-10.5H5.25ZM27.625 -2.625V-5.25H25.0V-21.0H30.25V-5.25H38.125V-21.0H43.375V-5.25H40.75V-2.625ZM52.625 -2.625V-5.25H57.875V-18.375H52.625V-21.0H68.375V-18.375H63.125V-5.25H68.375V-2.625ZM77.625 -2.625V-21.0H82.875V-5.25H93.375V-2.625ZM100.0 -2.625V-21.0H113.125V-18.375H115.75V-15.750000000000002H118.375V-7.875000000000001H115.75V-5.25H113.125V-2.625ZM105.25 -5.25H110.5V-7.875000000000001H113.125V-15.750000000000002H110.5V-18.375H105.25ZM125.0 -2.625V-15.750000000000002H127.625V-18.375H130.25V-21.0H138.125V-18.375H140.75V-15.750000000000002H143.375V-2.625H138.125V-7.875000000000001H130.25V-2.625ZM130.25 -10.5H138.125V-15.750000000000002H135.5V-18.375H132.875V-15.750000000000002H130.25ZM150.0 -2.625V-21.0H165.75V-18.375H168.375V-10.5H163.125V-7.875000000000001H165.75V-5.25H168.375V-2.625H160.5V-5.25H157.875V-7.875000000000001H155.25V-2.625ZM155.25 -10.5H160.5V-13.125H163.125V-18.375H155.25ZM175.0 -2.625V-21.0H193.375V-18.375H180.25V-13.125H190.75V-10.5H180.25V-5.25H193.375V-2.625ZM200.0 -2.625V-21.0H205.25V-18.375H207.875V-15.750000000000002H210.5V-13.125H213.125V-21.0H218.375V-2.625H213.125V-7.875000000000001H210.5V-10.5H207.875V-13.125H205.25V-2.625ZM225.0 -2.625V-15.750000000000002H227.625V-18.375H230.25V-21.0H238.125V-18.375H240.75V-15.750000000000002H243.375V-2.625H238.125V-7.875000000000001H230.25V-2.625ZM230.25 -10.5H238.125V-15.750000000000002H235.5V-18.375H232.875V-15.750000000000002H230.25ZM275.0 -2.625V-7.875000000000001H277.625V-10.5H280.25V-13.125H285.5V-15.750000000000002H288.125V-18.375H280.25V-15.750000000000002H275.0V-18.375H277.625V-21.0H290.75V-18.375H293.375V-13.125H290.75V-10.5H288.125V-7.875000000000001H282.875V-5.25H293.375V-2.625ZM305.25 -2.625V-7.875000000000001H310.5V-2.625ZM330.25 -2.625V-5.25H327.625V-7.875000000000001H325.0V-15.750000000000002H327.625V-18.375H330.25V-21.0H338.125V-18.375H340.75V-15.750000000000002H343.375V-7.875000000000001H340.75V-5.25H338.125V-2.625ZM332.875 -5.25H338.125V-15.750000000000002H335.5V-18.375H330.25V-7.875000000000001H332.875Z"/>
    <path id="ba-line1" d="M42.839999999999996 -47.61 39.059999999999995 -43.83 34.29 -48.42H25.56L10.799999999999999 -33.66V-24.57L25.65 -9.81H34.199999999999996L38.879999999999995 -14.76L42.839999999999996 -10.98L37.35 -5.22Q36.54 -4.41 35.37 -4.41H24.57Q23.58 -4.41 22.68 -5.31L6.21 -21.509999999999998Q5.3999999999999995 -22.32 5.3999999999999995 -23.4V-34.74Q5.3999999999999995 -35.91 6.12 -36.629999999999995L22.59 -53.01Q23.31 -53.73 24.48 -53.73H35.37Q36.629999999999995 -53.73 37.26 -53.1ZM61.58 -44.46V-13.5L65.09 -9.9H84.17L88.03999999999999 -13.77V-44.37L84.17 -48.42H65.18ZM56.9 -47.339999999999996 62.03 -52.919999999999995Q62.75 -53.73 64.01 -53.73H85.34Q86.69 -53.73 87.32 -52.919999999999995L92.72 -47.339999999999996Q93.44 -46.62 93.44 -45.449999999999996V-12.6Q93.44 -11.34 92.63 -10.709999999999999L87.14 -5.31Q86.33 -4.5 85.25 -4.5H64.01Q62.84 -4.5 62.120000000000005 -5.22L56.81 -10.35Q56.0 -11.16 56.0 -12.33V-45.54Q56.0 -46.44 56.9 -47.339999999999996ZM106.60000000000001 -4.5V-53.73H111.91L138.73000000000002 -26.279999999999998V-53.73H144.04V-4.5H138.73000000000002V-18.0L111.91 -45.72V-4.5ZM189.06 -44.82 185.64000000000001 -48.42H166.74L162.87 -44.55V-41.67L193.29000000000002 -20.25Q194.46 -19.485 194.46 -18.0V-12.69Q194.46 -11.745 193.74 -10.889999999999999L188.61 -5.31Q187.62 -4.32 186.63 -4.32H165.39000000000001Q164.31 -4.32 163.5 -5.13L158.01000000000002 -10.62Q157.20000000000002 -11.43 157.20000000000002 -12.51V-15.299999999999999H162.60000000000002V-13.59L166.47 -9.81H185.46L189.06 -13.77V-16.56L158.64000000000001 -37.98Q157.47 -38.745 157.47 -40.23V-45.629999999999995Q157.47 -46.71 158.28 -47.519999999999996L163.77 -53.01Q164.49 -53.73 165.66000000000003 -53.73H186.72000000000003Q187.89000000000001 -53.73 188.61 -53.01L193.83 -47.79Q194.64000000000001 -46.98 194.64000000000001 -45.9V-43.019999999999996H189.06ZM207.8 -53.73H245.24V-48.33H229.22V-4.41H223.82V-48.33H207.8ZM278.02 -26.459999999999997 295.03 -9.27Q295.84 -8.459999999999999 295.84 -7.38V-4.5H290.53V-5.76L270.28 -26.459999999999997H263.71V-4.5H258.4V-53.73H287.65Q288.73 -53.73 289.54 -52.919999999999995L295.03 -47.519999999999996Q295.84 -46.71 295.84 -45.629999999999995V-34.56Q295.84 -33.48 295.03 -32.67L289.72 -27.27Q288.90999999999997 -26.459999999999997 287.83 -26.459999999999997ZM263.71 -31.86H286.65999999999997L290.44 -35.64V-44.46L286.57 -48.33H263.71ZM309.0 -53.73H314.22V-13.68L318.09000000000003 -9.9H337.35L341.04 -13.77V-53.73H346.44V-12.69Q346.44 -11.61 345.72 -10.889999999999999L340.5 -5.3999999999999995Q339.6 -4.5 338.52000000000004 -4.5H316.92Q315.84000000000003 -4.5 315.03000000000003 -5.31L309.72 -10.62Q309.0 -11.34 309.0 -12.51ZM397.04 -47.61 393.26000000000005 -43.83 388.49000000000007 -48.42H379.76000000000005L365.00000000000006 -33.66V-24.57L379.85 -9.81H388.40000000000003L393.08000000000004 -14.76L397.04 -10.98L391.55000000000007 -5.22Q390.74000000000007 -4.41 389.57000000000005 -4.41H378.77000000000004Q377.78000000000003 -4.41 376.88000000000005 -5.31L360.41 -21.509999999999998Q359.6 -22.32 359.6 -23.4V-34.74Q359.6 -35.91 360.32000000000005 -36.629999999999995L376.79 -53.01Q377.51000000000005 -53.73 378.68000000000006 -53.73H389.57000000000005Q390.83000000000004 -53.73 391.46000000000004 -53.1ZM410.20000000000005 -53.73H447.64000000000004V-48.33H431.62000000000006V-4.41H426.2200000000001V-48.33H410.20000000000005ZM471.5100000000001 -53.73H487.5300000000001V-48.33H482.2200000000001V-9.81H487.5300000000001V-4.32H471.5100000000001V-9.81H476.8200000000001V-48.33H471.5100000000001ZM516.9800000000001 -44.46V-13.5L520.4900000000001 -9.9H539.5700000000002L543.44 -13.77V-44.37L539.5700000000002 -48.42H520.5800000000002ZM512.3000000000001 -47.339999999999996 517.4300000000001 -52.919999999999995Q518.1500000000001 -53.73 519.4100000000001 -53.73H540.7400000000001Q542.0900000000001 -53.73 542.7200000000001 -52.919999999999995L548.1200000000001 -47.339999999999996Q548.8400000000001 -46.62 548.8400000000001 -45.449999999999996V-12.6Q548.8400000000001 -11.34 548.0300000000001 -10.709999999999999L542.5400000000001 -5.31Q541.7300000000001 -4.5 540.6500000000001 -4.5H519.4100000000001Q518.2400000000001 -4.5 517.5200000000001 -5.22L512.2100000000002 -10.35Q511.4000000000001 -11.16 511.4000000000001 -12.33V-45.54Q511.4000000000001 -46.44 512.3000000000001 -47.339999999999996ZM562.0000000000001 -4.5V-53.73H567.3100000000002L594.1300000000001 -26.279999999999998V-53.73H599.4400000000002V-4.5H594.1300000000001V-18.0L567.3100000000002 -45.72V-4.5Z"/>
    <path id="ba-line2" d="M42.839999999999996 -47.61 39.059999999999995 -43.83 34.29 -48.42H25.56L10.799999999999999 -33.66V-24.57L25.65 -9.81H34.199999999999996L38.879999999999995 -14.76L42.839999999999996 -10.98L37.35 -5.22Q36.54 -4.41 35.37 -4.41H24.57Q23.58 -4.41 22.68 -5.31L6.21 -21.509999999999998Q5.3999999999999995 -22.32 5.3999999999999995 -23.4V-34.74Q5.3999999999999995 -35.91 6.12 -36.629999999999995L22.59 -53.01Q23.31 -53.73 24.48 -53.73H35.37Q36.629999999999995 -53.73 37.26 -53.1ZM56.0 -53.73H61.31V-32.04H88.13V-53.73H93.44V-4.5H88.13V-27.0H61.31V-4.5H56.0ZM111.91 -21.96V-4.41H106.60000000000001V-34.83Q106.60000000000001 -35.82 107.41 -36.629999999999995L123.34 -52.919999999999995Q124.015 -53.73 125.14 -53.73Q126.4 -53.73 127.21000000000001 -52.919999999999995L143.32 -36.54Q144.04 -35.82 144.04 -34.65V-4.41H138.64V-21.96ZM112.0 -27.0H138.64V-33.57L125.23 -47.07L112.0 -33.66ZM157.20000000000002 -53.73H162.51000000000002V-9.81H194.64000000000001V-4.41H157.20000000000002ZM207.8 -53.73H213.11V-9.81H245.24V-4.41H207.8ZM258.4 -53.82H295.84V-48.33H263.71V-32.04H285.13V-26.55H263.71V-9.81H295.84V-4.41H258.4ZM309.0 -4.5V-53.73H314.31L341.13 -26.279999999999998V-53.73H346.44V-4.5H341.13V-18.0L314.31 -45.72V-4.5ZM375.62000000000006 -27.0H397.04V-21.96H391.73V-4.59H373.1Q371.93000000000006 -4.59 371.21000000000004 -5.31L360.41 -16.02Q359.6 -16.83 359.6 -17.91V-40.23Q359.6 -41.58 360.32000000000005 -42.3L371.12000000000006 -53.01Q371.66 -53.73 373.01000000000005 -53.73H383.81000000000006Q385.07000000000005 -53.73 385.79 -53.01L392.54 -46.17L388.6700000000001 -42.39L382.73 -48.42H374.18000000000006L365.00000000000006 -39.15V-19.08L374.18000000000006 -9.99H386.4200000000001V-21.96H375.62000000000006ZM410.20000000000005 -53.82H447.64000000000004V-48.33H415.51000000000005V-32.04H436.93000000000006V-26.55H415.51000000000005V-9.81H447.64000000000004V-4.41H410.20000000000005Z"/>
  </defs>

  <!-- Kicker chip: BUILDARENA 2.0 -->
  <rect x="235.00" y="22.00" width="390.00" height="46.00" fill="#004990" transform="translate(6,6)"/>
  <rect x="235.00" y="22.00" width="390.00" height="46.00" fill="#8b0a1f" stroke="#ff304f" stroke-width="3"/>
  <use href="#ba-kicker" x="257.00" y="53.00" fill="#ffffff"/>

  <!-- Title: CONSTRUCTION / CHALLENGE (faux-bold via same-color stroke) -->
  <use href="#ba-line1" x="127.40" y="168.00" fill="#c8102e" stroke="#c8102e" stroke-width="3" opacity="0.45" filter="url(#ba-glow)"/>
  <use href="#ba-line2" x="203.30" y="268.00" fill="#c8102e" stroke="#c8102e" stroke-width="3" opacity="0.45" filter="url(#ba-glow)"/>
  <use href="#ba-line1" x="136.40" y="177.00" fill="#c8102e" stroke="#c8102e" stroke-width="3"/>
  <use href="#ba-line2" x="212.30" y="277.00" fill="#c8102e" stroke="#c8102e" stroke-width="3"/>
  <use href="#ba-line1" x="132.40" y="173.00" fill="#0f1224" stroke="#0f1224" stroke-width="3"/>
  <use href="#ba-line2" x="208.30" y="273.00" fill="#0f1224" stroke="#0f1224" stroke-width="3"/>
  <use href="#ba-line1" x="127.40" y="168.00" fill="#022a52" stroke="#022a52" stroke-width="6"/>
  <use href="#ba-line2" x="203.30" y="268.00" fill="#022a52" stroke="#022a52" stroke-width="6"/>
  <use href="#ba-line1" x="127.40" y="168.00" fill="#f7f8ff" stroke="#f7f8ff" stroke-width="3"/>
  <use href="#ba-line2" x="203.30" y="268.00" fill="#f7f8ff" stroke="#f7f8ff" stroke-width="3"/>
</svg>
